<?xml version="1.0" encoding="UTF-8"?>
<svg width="228px" height="96px" viewBox="0 0 228 96" version="1.1" xmlns="http://www.w3.org/2000/svg" xmlns:xlink="http://www.w3.org/1999/xlink">
    <title>logo</title>
    <defs>
        <linearGradient x1="19.8514589%" y1="84.2449477%" x2="80.1494456%" y2="15.7550468%" id="linearGradient-1">
            <stop stop-color="#121A28" offset="0%"></stop>
            <stop stop-color="#435168" offset="100%"></stop>
        </linearGradient>
    </defs>
    <g id="logo" stroke="none" stroke-width="1" fill="none" fill-rule="evenodd">
        <g id="Platform_Bildmarke_FullFidelity" transform="translate(-5.8182, 2.9091)">
            <g id="Group-4" transform="translate(0, 1.1056)" fill="#FFFFFF">
                <path d="M7.56303255,23.0586911 L7.58542394,63.7068428 C7.58631955,64.6763197 8.11025126,65.5723782 8.96108055,66.0562322 L44.6144099,86.36129 C45.4643435,86.8451439 46.512207,86.8451439 47.3621406,86.3595208 L82.9930797,66.016427 C83.8430134,65.530804 84.3660495,64.6347454 84.365155,63.6652685 L84.3427636,23.0171168 C84.3427636,22.0476399 83.8179363,21.1515813 82.9680026,20.6677274 L47.3137777,0.362669599 C46.463844,-0.121184316 45.4159806,-0.121184316 44.5669425,0.364438718 L8.93600347,20.7075326 C8.0860698,21.1931556 7.56213809,22.0892141 7.56303255,23.0586911" id="Fill-2"></path>
            </g>
            <g id="Group-7-Copy" transform="translate(6.5858, 0)" fill="url(#linearGradient-1)" stroke="url(#linearGradient-1)" stroke-width="0.412174646">
                <path d="M39.3534631,-0.206087323 C40.0314984,-0.165092905 40.4680139,-0.0321545713 40.8649044,0.196400104 L77.4310058,21.1999065 C78.4374109,21.8612602 78.9378065,22.8000562 78.9387281,23.8062433 L78.9616921,65.8543827 C78.8911059,67.0534204 78.3261124,67.9546201 77.4514929,68.4586685 L40.9089984,89.5035092 C40.2943611,89.8074348 39.8483088,89.9037497 39.4030556,89.9037497 C38.7251521,89.863474 38.2885611,89.7298445 37.8916109,89.5012554 L1.32557153,68.4968696 C0.319150934,67.8364667 -0.181287854,66.8976453 -0.182209433,65.8914186 L-0.206090861,23.8431844 C-0.134431472,22.6440268 0.431411851,21.7420708 1.30503105,21.2389859 L37.842462,0.198505363 C38.30966,-0.0715185627 38.8310605,-0.206087323 39.3534631,-0.206087323 Z M3.9578593,26.6912652 L3.97872413,65.2340259 L37.3186896,84.3864412 L37.2978248,45.9403779 L3.9578593,26.6912652 Z M74.7788501,26.6530503 L41.4597413,45.9374125 L41.4806061,84.3834777 L74.8006221,65.1949092 L74.7788501,26.6530503 Z M39.3554324,4.11596346 L6.21488701,23.2018334 L39.3772112,42.3473489 L72.5186637,23.1656926 L39.3554324,4.11596346 Z" id="Fill-5"></path>
            </g>
            <g id="Group-16" transform="translate(53.8095, 37.0341)" stroke-width="0.824349291">
                <polygon id="Fill-8" stroke="#121A28" fill="#121A28" points="7.44162123 32.8717066 7.44003776 29.4990201 3.10685766 32.0049129 3.10448245 27.2836203 0.00958002542 29.0734322 0.0135387136 37.1674112"></polygon>
                <polygon id="Fill-10" stroke="#121A28" fill="#121A28" points="22.29264 16.1874115 19.1977375 17.9772233 19.2001128 22.6985159 14.8677244 25.2044087 14.8693079 28.5763143 22.2973904 24.2806096"></polygon>
                <polygon id="Fill-12" stroke="#121A28" fill="#121A28" points="0.00475042583 20.9800779 3.09965285 19.190266 3.09727764 14.4689734 7.42966599 11.9630806 7.42808252 8.59117504 0 12.8868797"></polygon>
                <polygon id="Fill-14" stroke="#FF5252" fill="#FF5252" points="14.8558483 4.29570466 14.8574318 7.66839115 19.1906119 5.16249836 19.1929871 9.88379092 22.2878895 8.09397905 22.2839309 0"></polygon>
            </g>
        </g>
        <text id="ERP" font-family="Barlow-ExtraBold, Barlow" font-size="75.6363636" font-weight="700" letter-spacing="-2.909091" fill="#121A28">
            <tspan x="97.7454545" y="77.7454545">ERP</tspan>
        </text>
    </g>
</svg>