<?xml version="1.0" encoding="UTF-8"?>
<svg width="96px" height="96px" viewBox="0 0 96 96" version="1.1" xmlns="http://www.w3.org/2000/svg" xmlns:xlink="http://www.w3.org/1999/xlink">
    <title>mark</title>
    <defs>
        <linearGradient x1="20.0954912%" y1="84.2449477%" x2="79.9054061%" y2="15.7550468%" id="linearGradient-1">
            <stop stop-color="#121A28" offset="0%"></stop>
            <stop stop-color="#435168" offset="100%"></stop>
        </linearGradient>
    </defs>
    <g id="mark" stroke="none" stroke-width="1" fill="none" fill-rule="evenodd">
        <g id="Platform_Bildmarke_FullFidelity_new-Copy" transform="translate(6.6716, 0.5589)">
            <g id="Group-4" transform="translate(1.028, 1.1679)" fill="#FFFFFF">
                <path d="M0,24.3570223 L0.0235562305,67.2938887 C0.0244984315,68.3179525 0.575686005,69.2644641 1.47077694,69.7755616 L38.9788558,91.223906 C39.8730045,91.7350035 40.9753796,91.7350035 41.8695284,91.2220372 L79.3540522,69.7335152 C80.2482009,69.2205489 80.7984463,68.2740374 80.7975053,67.2499735 L80.773949,24.3131072 C80.773949,23.2890433 80.2218193,22.3425318 79.3276705,21.8314342 L41.8186495,0.383089894 C40.9245008,-0.12800766 39.8221256,-0.12800766 38.9289191,0.384958624 L1.44439531,21.8734806 C0.550246578,22.3864469 -0.000940994962,23.3329585 0,24.3570223" id="Fill-2"></path>
            </g>
            <g id="Group-7-Copy" fill="url(#linearGradient-1)" stroke="url(#linearGradient-1)" stroke-width="0.435110714">
                <path d="M41.4007001,-0.217555357 C42.1143825,-0.174232829 42.5737754,-0.0337490455 42.9914726,0.207766948 L81.4598316,22.3939002 C82.5184774,23.0924074 83.0450385,24.0838786 83.0460079,25.1466664 L83.0701666,69.5623173 C82.9959038,70.8288012 82.4013923,71.7805811 81.4813614,72.3129594 L43.0378335,94.5427566 C42.3909426,94.8639375 41.9214801,94.9656899 41.4528725,94.9656899 C40.7393299,94.9231269 40.279857,94.7819129 39.8620964,94.5403603 L1.39380297,72.3532982 C0.335141012,71.6557953 -0.191465824,70.6642974 -0.192435297,69.6014676 L-0.217559062,25.185717 C-0.142167328,23.9191064 0.453238172,22.9665273 1.37221683,22.4351666 L39.8103885,0.209992044 C40.3021091,-0.0753623198 40.8508799,-0.217555357 41.4007001,-0.217555357 Z M4.16450146,28.1946628 L4.18645161,68.9073944 L39.2593269,89.1373341 L39.2373767,48.5267402 L4.16450146,28.1946628 Z M78.668232,28.154298 L43.6172975,48.523608 L43.6392476,89.1342019 L78.6911365,68.866075 L78.668232,28.154298 Z M41.4027728,4.3478126 L6.53836707,24.508224 L41.4256828,44.7316379 L76.2910428,24.4700475 L41.4027728,4.3478126 Z" id="Fill-5"></path>
            </g>
            <g id="Group-16" transform="translate(49.6803, 39.1194)" stroke-width="0.870221428">
                <polygon id="Fill-8" stroke="#121A28" fill="#121A28" points="7.82874758 34.7225646 7.82708173 31.1599773 3.26848192 33.8069656 3.26598314 28.8198383 0.0100783954 30.7104265 0.0142430215 39.2601411"></polygon>
                <polygon id="Fill-10" stroke="#121A28" fill="#121A28" points="23.4523427 17.0988518 20.1964379 18.98944 20.1989367 23.9765673 15.6411698 26.6235556 15.6428357 30.1853181 23.4573402 25.6477416"></polygon>
                <polygon id="Fill-12" stroke="#121A28" fill="#121A28" points="0.00499755141 22.1613717 3.2609023 20.2707836 3.25840352 15.2836563 7.81617041 12.6366679 7.81450456 9.07490549 0 13.612482"></polygon>
                <polygon id="Fill-14" stroke="#FF5252" fill="#FF5252" points="15.628676 4.53757647 15.6303418 8.10016378 20.1889416 5.45317544 20.1914404 10.4403028 23.4473451 8.54971462 23.4431805 0"></polygon>
            </g>
        </g>
    </g>
</svg>